<svg width="1200" height="320" viewBox="0 0 1200 320" fill="none" xmlns="http://www.w3.org/2000/svg" role="img" aria-labelledby="title desc">
  <title id="title">SubPilot logo option C - SP monogram</title>
  <desc id="desc">An SP monogram paired with the SubPilot wordmark.</desc>
  <rect width="1200" height="320" rx="40" fill="#0B1720"/>
  <g transform="translate(76 56)">
    <rect width="208" height="208" rx="52" fill="#ECFDF5"/>
    <path d="M130 62H88C70 62 56 76 56 93C56 110 70 124 88 124H112C127 124 140 136 140 151C140 166 127 178 112 178H65" stroke="#0B1720" stroke-width="18" stroke-linecap="round" stroke-linejoin="round"/>
    <path d="M112 62H137C156 62 172 77 172 96C172 115 156 130 137 130H115" stroke="#14B8A6" stroke-width="18" stroke-linecap="round"/>
    <path d="M115 130V178" stroke="#14B8A6" stroke-width="18" stroke-linecap="round"/>
  </g>
  <text x="330" y="142" fill="#FFFFFF" font-family="Inter, Arial, sans-serif" font-size="88" font-weight="850" letter-spacing="0">SubPilot</text>
  <text x="336" y="198" fill="#C9D8D3" font-family="Inter, Arial, sans-serif" font-size="28" font-weight="500" letter-spacing="0">Plans, renewals, recovery, and webhooks in one place.</text>
</svg>
